<svg width="85.000000" height="30.000000" viewBox="0 0 85 30" fill="none" xmlns="http://www.w3.org/2000/svg" xmlns:xlink="http://www.w3.org/1999/xlink">
	<desc>
			Created with Pixso.
	</desc>
	<defs>
		<clipPath id="clip11779_7">
			<rect id="Frame 63" rx="0.000000" width="84.000000" height="29.000000" transform="translate(0.500000 0.500000)" fill="white" fill-opacity="0"/>
		</clipPath>
	</defs>
	<rect id="Frame 63" rx="0.000000" width="84.000000" height="29.000000" transform="translate(0.500000 0.500000)" fill="#FFFFFF" fill-opacity="0"/>
	<g clip-path="url(#clip11779_7)">
		<path id="Vector" d="M38.64 14.15C41.32 13.27 41.81 11.02 41.81 9.2C41.8 6.41 39.82 4 33.96 4L23.01 4L23.01 24.95L33.93 24.95C39.83 24.95 42 21.94 42 18.93C42 15.28 38.64 14.15 38.64 14.15ZM28.21 8.55L35.57 8.55L35.6 8.56C36.43 8.71 37.04 9.41 37.04 10.23C37.04 11.08 36.39 11.87 35.53 11.99L28.21 12L28.21 8.55ZM35.22 20.07L28.21 20.07L28.21 16.56L35.39 16.56L35.41 16.56C36.3 16.66 36.98 17.4 36.98 18.28C36.98 19.24 36.18 20.05 35.22 20.07Z" fill="#8491A0" fill-opacity="1.000000" fill-rule="nonzero"/>
		<path id="Vector" d="M66.5 4L84.99 4L84.98 8.57L71.64 8.57L71.65 11.95L83.68 11.95L83.68 16.55L71.65 16.55L71.65 20.2L84.99 20.2L84.99 25L66.5 25L66.5 4Z" fill="#8491A0" fill-opacity="1.000000" fill-rule="nonzero"/>
		<path id="Vector" d="M55.74 4.03L44.56 4.03L44.56 24.99L49.7 24.99L49.7 16.51C49.7 16.51 55.35 16.5 55.35 16.5C56.97 16.53 58.23 17.84 58.23 19.47L58.23 24.97L63.26 24.97L63.25 18.2C63.25 15.07 60.2 14.14 60.2 14.14C60.2 14.14 63.31 13.22 63.31 9.51C63.31 4.98 59.4 4.03 55.74 4.03ZM58.55 10.53C58.45 11.22 57.76 11.97 56.9 11.97L49.68 11.97L49.68 8.61L56.9 8.61C57.76 8.61 58.44 9.24 58.55 10.07L58.55 10.53Z" fill="#8491A0" fill-opacity="1.000000" fill-rule="nonzero"/>
		<path id="Vector" d="M19.68 19.92C19.61 19.92 12.67 20.06 10.27 19.83C6.41 19.45 5.04 16.61 5.04 14.29C5.04 11.39 7.02 9.26 10.1 8.86C11.56 8.67 19.56 8.76 19.64 8.76L19.81 8.76L19.83 4L19.66 4L10.61 4.02C9.6 4.08 7.93 4.18 6.22 4.87C4.57 5.62 3.14 6.77 2.07 8.2C0.71 10.02 0 12.18 0 14.45C0 15.16 0.05 15.87 0.17 16.55C0.82 19.73 2.92 22.36 5.92 23.77C6.94 24.22 8.5 24.75 11.66 24.92C11.66 24.92 13.36 24.96 13.36 24.96L19.67 24.97L19.84 24.97L19.85 19.92L19.68 19.92Z" fill="#8491A0" fill-opacity="1.000000" fill-rule="nonzero"/>
	</g>
</svg>
