<svg width="70.000031" height="29.000000" viewBox="0 0 70 29" fill="none" xmlns="http://www.w3.org/2000/svg" xmlns:xlink="http://www.w3.org/1999/xlink">
	<desc>
			Created with Pixso.
	</desc>
	<defs/>
	<path id="Vector" d="M19.51 14.09C18.12 18.31 14.74 20.68 10.16 20.68C4.46 20.68 0 16.16 0 10.38C0 4.67 4.46 0 9.96 0C15.08 0 20.01 4.21 19.97 11.22L3.3 11.22C3.73 15.32 6.88 17.73 10.16 17.73C12.97 17.73 14.97 16.39 16.04 14.09L19.51 14.09ZM16.35 8.31C15.54 5.09 12.85 2.95 9.96 2.95C7.23 2.95 4.34 4.94 3.5 8.31L16.35 8.31ZM31.48 20.68C28.63 20.68 26.17 19.15 24.74 17.23L24.74 29L21.47 29L21.47 0.49L24.63 0.49L24.63 3.63C26.01 1.64 28.55 0 31.48 0C37.17 0 41.37 4.63 41.37 10.3C41.37 16.05 37.17 20.68 31.48 20.68ZM31.48 2.98C27.82 2.98 24.74 6.28 24.74 10.3C24.74 14.36 27.82 17.69 31.48 17.69C35.17 17.69 38.1 14.36 38.1 10.3C38.1 6.28 35.17 2.98 31.48 2.98ZM42.79 0.49L46.06 0.49L46.06 20.22L42.79 20.22L42.79 0.49ZM47.52 10.39C47.52 4.63 52.22 0 58.16 0C64.11 0 68.8 4.63 68.8 10.39C68.8 16.15 64.06 20.69 58.16 20.69C52.26 20.69 47.52 16.15 47.52 10.39ZM59.06 3.14C53.65 2.67 50.63 6.78 50.63 11.56C50.63 16.34 54.59 20.21 59.47 20.21C61.3 20.22 63.08 19.66 64.58 18.62L63.36 15.52C64.62 14.2 65.36 12.39 65.36 10.38C65.36 6.42 62.58 3.47 59.06 3.14Z" fill="#8491A0" fill-opacity="1.000000" fill-rule="nonzero"/>
	<path id="Vector" d="M55.21 12.37L64.86 20.19L70 20.19L60.59 12.37L55.21 12.37Z" fill="#8491A0" fill-opacity="1.000000" fill-rule="nonzero"/>
</svg>
