<svg width="27.995392" height="28.001465" viewBox="0 0 27.9954 28.0015" fill="none" xmlns="http://www.w3.org/2000/svg" xmlns:xlink="http://www.w3.org/1999/xlink">
	<desc>
			Created with Pixso.
	</desc>
	<defs/>
	<path id="Vector" d="M26.77 0L0.33 0C0.25 0 0.17 0.02 0.11 0.07C0.05 0.12 0.01 0.19 0 0.27C-0.01 0.35 0 0.43 0.04 0.49C0.08 0.56 0.14 0.61 0.21 0.64L24.13 8.47C24.16 8.48 24.19 8.48 24.21 8.47C24.24 8.46 24.26 8.44 24.28 8.41L27.84 1.79C27.94 1.61 27.99 1.4 27.99 1.19C27.99 0.98 27.93 0.77 27.82 0.59C27.71 0.41 27.56 0.26 27.37 0.15C27.19 0.05 26.98 0 26.77 0Z" fill="#8491A0" fill-opacity="1.000000" fill-rule="nonzero"/>
	<path id="Vector" d="M0 27.67C0 27.75 0.02 27.82 0.07 27.87C0.11 27.93 0.18 27.97 0.24 27.99C0.31 28 0.39 28 0.45 27.97C0.52 27.94 0.57 27.89 0.61 27.83L5.21 19.3C5.31 19.11 5.47 18.95 5.66 18.84C5.85 18.72 6.06 18.66 6.28 18.66L18.02 18.66C18.24 18.66 18.46 18.6 18.64 18.49C18.83 18.38 18.99 18.22 19.09 18.02L22.6 11.52C22.61 11.51 22.61 11.49 22.61 11.47C22.61 11.46 22.61 11.44 22.6 11.42C22.59 11.41 22.58 11.4 22.56 11.39C22.55 11.38 22.53 11.38 22.51 11.38L1.22 11.38C0.9 11.38 0.59 11.51 0.36 11.73C0.13 11.96 0 12.27 0 12.6L0 27.67Z" fill="#8491A0" fill-opacity="1.000000" fill-rule="nonzero"/>
</svg>
