<svg width="130.715820" height="40.000000" viewBox="0 0 130.716 40" fill="none" xmlns="http://www.w3.org/2000/svg" xmlns:xlink="http://www.w3.org/1999/xlink">
	<desc>
			Created with Pixso.
	</desc>
	<defs/>
	<path id="Vector" d="M8.09 39.5L0 39.5L0 0L9.04 0C10.91 0 12.43 0.09 13.6 0.29C14.8 0.46 15.73 0.83 16.4 1.4C17.06 1.96 17.51 2.78 17.75 3.84C18.01 4.88 18.15 6.28 18.15 8.04L18.15 12.15C18.15 13.18 18.03 14.03 17.79 14.7C17.56 15.36 17.26 15.9 16.9 16.29C16.56 16.7 16.2 17 15.8 17.2C15.4 17.36 15.03 17.48 14.7 17.54L14.7 17.75C15.2 17.88 15.65 18.08 16.04 18.34C16.48 18.58 16.85 18.95 17.15 19.45C17.45 19.95 17.68 20.61 17.85 21.45C18.04 22.25 18.15 23.28 18.15 24.54L18.15 39.5L10 39.5L10 22C10 21.56 9.95 21.28 9.84 21.15C9.75 20.98 9.48 20.9 9.04 20.9L8.09 20.9L8.09 39.5ZM8.09 14.54L9.04 14.54C9.48 14.54 9.75 14.48 9.84 14.34C9.95 14.18 10 13.88 10 13.45L10 8.04C10 7.61 9.95 7.33 9.84 7.2C9.75 7.03 9.48 6.95 9.04 6.95L8.09 6.95L8.09 14.54ZM37.12 33.65C37.12 35.04 37.01 36.16 36.77 37C36.57 37.83 36.17 38.48 35.57 38.95C35.01 39.38 34.21 39.66 33.17 39.79C32.17 39.93 30.86 40 29.22 40C27.62 40 26.31 39.93 25.27 39.79C24.24 39.66 23.44 39.38 22.87 38.95C22.31 38.48 21.91 37.83 21.67 37C21.47 36.16 21.37 35.04 21.37 33.65L21.37 15.4C21.37 14 21.47 12.88 21.67 12.04C21.91 11.21 22.31 10.58 22.87 10.15C23.44 9.68 24.24 9.38 25.27 9.25C26.31 9.11 27.62 9.04 29.22 9.04C30.86 9.04 32.17 9.11 33.17 9.25C34.21 9.38 35.01 9.68 35.57 10.15C36.17 10.58 36.57 11.21 36.77 12.04C37.01 12.88 37.12 14 37.12 15.4L37.12 33.65ZM28.32 32.25C28.32 32.68 28.37 32.98 28.47 33.15C28.57 33.28 28.82 33.34 29.22 33.34C29.66 33.34 29.92 33.28 30.02 33.15C30.12 32.98 30.17 32.68 30.17 32.25L30.17 16.79C30.17 16.36 30.12 16.08 30.02 15.95C29.92 15.78 29.66 15.7 29.22 15.7C28.82 15.7 28.57 15.78 28.47 15.95C28.37 16.08 28.32 16.36 28.32 16.79L28.32 32.25ZM47.87 0L47.87 10.9C48.3 10.29 48.83 9.88 49.47 9.65C50.13 9.41 50.95 9.29 51.92 9.29C52.88 9.29 53.67 9.41 54.27 9.65C54.87 9.84 55.32 10.18 55.62 10.65C55.95 11.11 56.17 11.75 56.27 12.54C56.4 13.31 56.47 14.26 56.47 15.4L56.47 33.65C56.47 34.81 56.4 35.79 56.27 36.59C56.17 37.36 55.95 37.98 55.62 38.45C55.28 38.91 54.8 39.25 54.17 39.45C53.53 39.65 52.72 39.75 51.72 39.75C50.58 39.75 49.67 39.63 48.97 39.4C48.27 39.13 47.73 38.71 47.37 38.15L47.37 39.5L40.72 39.5L40.72 0L47.87 0ZM49.52 16.79C49.52 16.4 49.47 16.11 49.37 15.95C49.3 15.78 49.08 15.7 48.72 15.7C48.38 15.7 48.13 15.76 47.97 15.9C47.83 16 47.73 16.16 47.67 16.4L47.67 32.65C47.73 32.88 47.83 33.06 47.97 33.2C48.13 33.29 48.38 33.34 48.72 33.34C49.08 33.34 49.3 33.26 49.37 33.09C49.47 32.93 49.52 32.65 49.52 32.25L49.52 16.79ZM67.25 5.2L60.15 5.2L60.15 0L67.25 0L67.25 5.2ZM67.25 39.5L60.15 39.5L60.15 9.54L67.25 9.54L67.25 39.5ZM87.58 39.5L80.38 39.5L80.38 16.79C80.38 16.4 80.33 16.11 80.23 15.95C80.17 15.78 79.95 15.7 79.58 15.7C79.25 15.7 79 15.76 78.83 15.9C78.7 16 78.58 16.16 78.48 16.4L78.48 39.5L71.33 39.5L71.33 9.54L77.98 9.54L77.98 10.9C78.35 10.33 78.88 9.93 79.58 9.7C80.28 9.43 81.2 9.29 82.33 9.29C83.33 9.29 84.17 9.4 84.83 9.59C85.53 9.79 86.08 10.13 86.48 10.59C86.88 11.06 87.17 11.7 87.33 12.5C87.5 13.26 87.58 14.23 87.58 15.4L87.58 39.5ZM98.65 39.5L91.4 39.5L91.4 32.45L98.65 32.45L98.65 39.5ZM130.71 0L126.61 39.5L116.41 39.5L115.06 10.84L114.86 10.84L113.21 39.5L102.86 39.5L99.81 0L107.96 0L108.81 27.7L109.01 27.7L110.21 0L120.21 0L121.06 27.7L121.26 27.7L122.51 0L130.71 0Z" fill="#FFFFFF" fill-opacity="1.000000" fill-rule="nonzero"/>
</svg>
