<svg width="20.000000" height="15.665039" viewBox="0 0 20 15.665" fill="none" xmlns="http://www.w3.org/2000/svg" xmlns:xlink="http://www.w3.org/1999/xlink">
	<desc>
			Created with Pixso.
	</desc>
	<defs/>
	<path id="Vector" d="M20 1.87C19.31 2.16 18.52 2.36 17.63 2.46C18.42 1.97 19.11 1.18 19.4 0.29C18.62 0.78 17.73 1.08 16.84 1.28C16.15 0.49 15.07 0 13.89 0C11.62 0 9.85 1.77 9.85 3.94C9.85 4.23 9.85 4.53 9.95 4.82C6.6 4.63 3.64 3.05 1.57 0.68C1.18 1.28 0.98 1.97 0.98 2.66C0.98 4.03 1.67 5.22 2.75 6C2.06 6 1.47 5.81 0.88 5.51C0.88 5.51 0.88 5.51 0.88 5.61C0.88 7.58 2.26 9.16 4.13 9.55C3.84 9.65 3.44 9.65 3.05 9.65C2.75 9.65 2.56 9.65 2.26 9.55C2.75 11.13 4.23 12.31 6 12.31C4.63 13.39 2.85 13.99 0.98 13.99C0.68 13.99 0.29 13.99 0 13.89C1.77 15.07 3.94 15.66 6.2 15.66C13.59 15.66 17.73 9.55 17.73 4.33C17.73 4.13 17.73 3.94 17.73 3.84C18.81 3.34 19.5 2.66 20 1.87Z" fill="#26A7DE" fill-opacity="1.000000" fill-rule="evenodd"/>
</svg>
