<svg width="20.000000" height="20.000000" viewBox="0 0 20 20" fill="none" xmlns="http://www.w3.org/2000/svg" xmlns:xlink="http://www.w3.org/1999/xlink">
	<desc>
			Created with Pixso.
	</desc>
	<defs/>
	<path id="Vector" d="M10 20C4.48 20 0 15.51 0 10C0 4.48 4.48 0 10 0C15.51 0 20 4.48 20 10C20 15.51 15.51 20 10 20ZM18.43 11.36C18.14 11.27 15.78 10.57 13.11 11C14.23 14.07 14.68 16.57 14.77 17.09C16.68 15.79 18.05 13.74 18.43 11.36ZM13.33 17.87C13.2 17.12 12.71 14.51 11.51 11.39C11.49 11.4 11.47 11.41 11.45 11.41C6.64 13.09 4.91 16.43 4.75 16.75C5.95 17.68 7.38 18.28 8.89 18.48C10.4 18.67 11.93 18.47 13.33 17.87ZM3.65 15.72C3.84 15.39 6.19 11.51 10.59 10.08C10.7 10.05 10.82 10.01 10.93 9.98C10.71 9.5 10.48 9.01 10.24 8.53C5.97 9.81 1.83 9.75 1.46 9.75C1.46 9.83 1.45 9.92 1.45 10.01C1.45 12.12 2.23 14.15 3.65 15.72ZM1.63 8.26C2.02 8.26 5.54 8.28 9.53 7.22C8.12 4.7 6.59 2.59 6.36 2.28C3.97 3.41 2.19 5.61 1.63 8.26ZM7.99 1.7C8.23 2.02 9.78 4.13 11.18 6.7C14.22 5.57 15.5 3.84 15.66 3.62C14.63 2.7 13.39 2.05 12.06 1.72C10.73 1.39 9.33 1.38 7.99 1.7ZM16.61 4.61C16.43 4.85 15 6.69 11.84 7.97C12.04 8.38 12.23 8.79 12.4 9.21C12.47 9.36 12.53 9.51 12.59 9.65C15.43 9.29 18.25 9.87 18.54 9.93C18.52 7.99 17.84 6.11 16.61 4.61Z" fill="#E94B88" fill-opacity="1.000000" fill-rule="evenodd"/>
</svg>
