<svg width="18.000000" height="18.000000" viewBox="0 0 18 18" fill="none" xmlns="http://www.w3.org/2000/svg" xmlns:xlink="http://www.w3.org/1999/xlink">
	<desc>
			Created with Pixso.
	</desc>
	<defs/>
	<path id="Vector" d="M16.65 0L1.34 0C0.63 0 0 0.54 0 1.26L0 16.73C0 17.45 0.63 18 1.34 18L16.65 18C17.37 18 18 17.45 18 16.73L18 1.26C18 0.63 17.37 0 16.65 0ZM5.31 15.46L2.6 15.46L2.6 6.87L5.31 6.87L5.31 15.46ZM3.96 5.6C3.06 5.6 2.42 4.88 2.42 4.07C2.42 3.25 3.15 2.53 3.96 2.53C4.77 2.53 5.48 3.25 5.48 4.07C5.58 4.97 4.85 5.6 3.96 5.6ZM15.3 15.46L12.6 15.46L12.6 11.3C12.6 10.31 12.6 9.04 11.25 9.04C9.89 9.04 9.63 10.13 9.63 11.3L9.63 15.55L6.92 15.55L6.92 6.96L9.45 6.96L9.45 8.14C9.81 7.41 10.71 6.78 11.97 6.78C14.67 6.78 15.21 8.59 15.21 10.85L15.21 15.46L15.3 15.46Z" fill="#0077B5" fill-opacity="1.000000" fill-rule="nonzero"/>
</svg>
