<svg width="32.000000" height="32.000000" viewBox="0 0 32 32" fill="none" xmlns="http://www.w3.org/2000/svg" xmlns:xlink="http://www.w3.org/1999/xlink">
	<desc>
			Created with Pixso.
	</desc>
	<defs/>
	<path id="Vector" d="M30.22 23.11L17.77 23.11L17.77 30.22L30.22 30.22L30.22 23.11ZM30.22 1.77L17.77 1.77L17.77 16L30.22 16L30.22 1.77ZM10.66 16L1.77 16L1.77 30.22L10.66 30.22L10.66 16ZM10.66 1.77L1.77 1.77L1.77 8.88L10.66 8.88L10.66 1.77ZM17.77 0C16.79 0 16 0.79 16 1.77L16 16C16 16.98 16.79 17.77 17.77 17.77L30.22 17.77C31.2 17.77 32 16.98 32 16L32 1.77C32 0.79 31.2 0 30.22 0L17.77 0ZM17.77 21.33C16.79 21.33 16 22.12 16 23.11L16 30.22C16 31.2 16.79 32 17.77 32L30.22 32C31.2 32 32 31.2 32 30.22L32 23.11C32 22.12 31.2 21.33 30.22 21.33L17.77 21.33ZM0 16C0 15.01 0.79 14.22 1.77 14.22L10.66 14.22C11.64 14.22 12.44 15.01 12.44 16L12.44 30.22C12.44 31.2 11.64 32 10.66 32L1.77 32C0.79 32 0 31.2 0 30.22L0 16ZM1.77 0C0.79 0 0 0.79 0 1.77L0 8.88C0 9.87 0.79 10.66 1.77 10.66L10.66 10.66C11.64 10.66 12.44 9.87 12.44 8.88L12.44 1.77C12.44 0.79 11.64 0 10.66 0L1.77 0Z" fill="#5221E6" fill-opacity="1.000000" fill-rule="evenodd"/>
</svg>
