<svg width="31.999329" height="31.998901" viewBox="0 0 31.9993 31.9989" fill="none" xmlns="http://www.w3.org/2000/svg" xmlns:xlink="http://www.w3.org/1999/xlink">
	<desc>
			Created with Pixso.
	</desc>
	<defs/>
	<path id="Vector" d="M17.22 1.2L30.79 14.77L31.99 13.57L18.42 0L17.22 1.2Z" fill="#5221E6" fill-opacity="1.000000" fill-rule="nonzero"/>
	<path id="Vector" d="M19.23 7.6C18.49 6.86 17.38 6.65 16.43 7.06L7 11.1C5.89 11.57 5.03 12.5 4.65 13.65C3.76 16.36 2.6 19.94 1.67 23C1.2 24.53 0.79 25.94 0.49 27.04C0.35 27.59 0.22 28.08 0.14 28.47C0.06 28.83 0 29.19 0 29.45L0 29.8L2.19 31.99L2.54 31.99C2.8 31.99 3.16 31.93 3.52 31.85C3.91 31.76 4.4 31.64 4.95 31.5C6.05 31.2 7.46 30.79 8.99 30.32C12.05 29.39 15.63 28.23 18.33 27.34C19.49 26.96 20.42 26.1 20.89 24.99L24.93 15.56C25.34 14.61 25.13 13.5 24.39 12.76L19.23 7.6ZM17.09 8.62C17.41 8.48 17.78 8.55 18.03 8.8L23.19 13.96C23.44 14.21 23.51 14.58 23.37 14.89L19.33 24.32C19.05 24.99 18.49 25.5 17.8 25.73C15.1 26.62 11.53 27.77 8.49 28.7C6.97 29.16 5.59 29.57 4.51 29.86C3.97 30 3.51 30.11 3.16 30.19C3.09 30.21 3.02 30.22 2.96 30.23L11.63 21.56C12.57 22.01 13.74 21.85 14.52 21.06C15.52 20.07 15.52 18.46 14.52 17.46C13.53 16.47 11.92 16.47 10.92 17.46C10.14 18.25 9.97 19.42 10.43 20.36L1.75 29.03C1.77 28.97 1.78 28.9 1.8 28.83C1.87 28.47 1.99 28.02 2.13 27.48C2.42 26.4 2.83 25.02 3.29 23.5C4.22 20.45 5.37 16.89 6.26 14.19C6.49 13.5 7 12.94 7.67 12.66L17.09 8.62Z" fill="#5221E6" fill-opacity="1.000000" fill-rule="evenodd"/>
</svg>

