<svg width="32.000000" height="26.073975" viewBox="0 0 32 26.074" fill="none" xmlns="http://www.w3.org/2000/svg" xmlns:xlink="http://www.w3.org/1999/xlink">
	<desc>
			Created with Pixso.
	</desc>
	<defs/>
	<path id="Vector" d="M29.82 5.23L26.89 5.23L26.22 2.2C25.93 0.9 24.81 0 23.48 0L13.31 0C11.98 0 10.85 0.9 10.57 2.2L9.89 5.23L9.2 5.23L9.2 3.94C9.2 3.21 8.6 2.61 7.87 2.61L3.59 2.61C2.86 2.61 2.26 3.21 2.26 3.94L2.26 5.23L2.17 5.23C0.97 5.23 0 6.2 0 7.4L0 22.09C0 23.28 0.97 24.26 2.17 24.26L4.39 24.26L12.24 24.26C14.02 25.4 16.13 26.07 18.39 26.07C20.66 26.07 22.77 25.4 24.55 24.26L29.82 24.26C31.02 24.26 32 23.28 32 22.09L32 7.4C32 6.2 31.02 5.23 29.82 5.23ZM11.79 2.47C11.95 1.75 12.57 1.24 13.31 1.24L23.48 1.24C24.21 1.24 24.84 1.75 25 2.47L25.61 5.23L24.55 5.23C22.77 4.08 20.66 3.42 18.39 3.42C16.13 3.42 14.02 4.08 12.24 5.23L11.17 5.23L11.79 2.47ZM3.51 3.94C3.51 3.89 3.54 3.86 3.59 3.86L7.87 3.86C7.91 3.86 7.95 3.89 7.95 3.94L7.95 5.23L3.51 5.23L3.51 3.94ZM5.01 23.01L5.01 16.23C5.01 15.89 4.73 15.61 4.39 15.61C4.04 15.61 3.76 15.89 3.76 16.23L3.76 23.01L2.17 23.01C1.66 23.01 1.25 22.59 1.25 22.09L1.25 7.4C1.25 6.89 1.66 6.48 2.17 6.48L2.89 6.48L8.57 6.48L10.39 6.48L10.64 6.48C8.43 8.55 7.05 11.49 7.05 14.74C7.05 18 8.43 20.94 10.64 23.01L5.01 23.01ZM24.16 23.01C23.42 23.53 22.6 23.95 21.73 24.26C20.68 24.62 19.56 24.82 18.39 24.82C17.23 24.82 16.1 24.62 15.06 24.26C14.19 23.95 13.37 23.53 12.62 23.01C10.01 21.18 8.3 18.16 8.3 14.74C8.3 11.33 10.01 8.3 12.62 6.48C13.37 5.96 14.19 5.54 15.06 5.23C16.1 4.86 17.23 4.66 18.39 4.66C19.56 4.66 20.68 4.86 21.73 5.23C22.6 5.54 23.42 5.96 24.16 6.48C26.78 8.3 28.49 11.33 28.49 14.74C28.49 18.16 26.78 21.18 24.16 23.01ZM30.75 22.09C30.75 22.59 30.33 23.01 29.82 23.01L26.14 23.01C28.35 20.94 29.74 18 29.74 14.74C29.74 11.49 28.35 8.55 26.14 6.48L26.39 6.48L29.82 6.48C30.33 6.48 30.75 6.89 30.75 7.4L30.75 22.09Z" fill="#5221E6" fill-opacity="1.000000" fill-rule="nonzero"/>
	<path id="Vector" d="M18.37 7.11C14.12 7.11 10.66 10.56 10.66 14.81C10.66 19.06 14.12 22.51 18.37 22.51C18.98 22.51 19.6 22.44 20.2 22.29C20.51 22.22 20.7 21.9 20.63 21.59C20.55 21.27 20.23 21.08 19.92 21.15C19.41 21.28 18.89 21.34 18.37 21.34C14.76 21.34 11.84 18.41 11.84 14.81C11.84 11.21 14.76 8.28 18.37 8.28C21.97 8.28 24.9 11.21 24.9 14.81C24.9 16.12 24.51 17.39 23.77 18.47C23.59 18.74 23.66 19.1 23.93 19.28C24.2 19.47 24.56 19.4 24.75 19.13C25.61 17.85 26.07 16.36 26.07 14.81C26.07 10.56 22.61 7.11 18.37 7.11Z" fill="#5221E6" fill-opacity="1.000000" fill-rule="nonzero"/>
	<path id="Vector" d="M4.74 8.29C3.43 8.29 2.37 9.35 2.37 10.66C2.37 11.97 3.43 13.03 4.74 13.03C6.04 13.03 7.11 11.97 7.11 10.66C7.11 9.35 6.04 8.29 4.74 8.29ZM4.74 11.76C4.13 11.76 3.64 11.27 3.64 10.66C3.64 10.06 4.13 9.56 4.74 9.56C5.34 9.56 5.83 10.06 5.83 10.66C5.83 11.27 5.34 11.76 4.74 11.76Z" fill="#5221E6" fill-opacity="1.000000" fill-rule="nonzero"/>
	<path id="Vector" d="M23.69 20.62C23.68 20.58 23.67 20.55 23.65 20.51C23.64 20.47 23.62 20.44 23.6 20.41C23.58 20.37 23.55 20.34 23.53 20.32C23.5 20.29 23.47 20.27 23.44 20.24C23.4 20.22 23.37 20.2 23.33 20.19C23.3 20.17 23.26 20.16 23.22 20.15C23.15 20.14 23.07 20.14 22.99 20.15C22.95 20.16 22.92 20.17 22.88 20.19C22.84 20.2 22.81 20.22 22.78 20.24C22.75 20.27 22.71 20.29 22.69 20.32C22.66 20.34 22.63 20.37 22.61 20.41C22.59 20.44 22.57 20.47 22.56 20.51C22.54 20.55 22.53 20.58 22.53 20.62C22.52 20.66 22.51 20.7 22.51 20.74C22.51 20.77 22.52 20.81 22.53 20.85C22.53 20.89 22.54 20.93 22.56 20.96C22.57 21 22.59 21.03 22.61 21.06C22.63 21.1 22.66 21.13 22.69 21.15C22.71 21.18 22.75 21.21 22.78 21.23C22.81 21.25 22.84 21.27 22.88 21.28C22.92 21.3 22.95 21.31 22.99 21.32C23.03 21.32 23.07 21.33 23.11 21.33C23.15 21.33 23.18 21.32 23.22 21.32C23.26 21.31 23.3 21.3 23.33 21.28C23.37 21.27 23.4 21.25 23.44 21.23C23.47 21.21 23.5 21.18 23.53 21.15C23.64 21.04 23.7 20.89 23.7 20.74C23.7 20.7 23.7 20.66 23.69 20.62Z" fill="#5221E6" fill-opacity="1.000000" fill-rule="nonzero"/>
</svg>
